<svg width="200" height="200" viewBox="0 0 200 200" xmlns="http://www.w3.org/2000/svg">
  <!-- Completely transparent background -->
  
  <!-- Book symbol with transparent background -->
  <rect x="70" y="60" width="60" height="80" rx="8" fill="#667eea"/>
  <rect x="75" y="65" width="50" height="70" rx="4" fill="rgba(255,255,255,0.9)"/>
  
  <!-- Pages -->
  <line x1="85" y1="80" x2="115" y2="80" stroke="#667eea" stroke-width="2"/>
  <line x1="85" y1="90" x2="115" y2="90" stroke="#667eea" stroke-width="2"/>
  <line x1="85" y1="100" x2="115" y2="100" stroke="#667eea" stroke-width="2"/>
  <line x1="85" y1="110" x2="115" y2="110" stroke="#667eea" stroke-width="2"/>
  <line x1="85" y1="120" x2="110" y2="120" stroke="#667eea" stroke-width="2"/>
  
  <!-- Light rays -->
  <g stroke="#f093fb" stroke-width="3" opacity="0.7">
    <line x1="100" y1="30" x2="100" y2="50"/>
    <line x1="140" y1="40" x2="130" y2="55"/>
    <line x1="160" y1="100" x2="145" y2="100"/>
    <line x1="140" y1="160" x2="130" y2="145"/>
    <line x1="60" y1="160" x2="70" y2="145"/>
    <line x1="40" y1="100" x2="55" y2="100"/>
    <line x1="60" y1="40" x2="70" y2="55"/>
  </g>
  
  <!-- Heart symbol at bottom -->
  <path d="M100 150 L95 145 Q90 140 95 145 Q100 140 105 145 Q110 140 105 145 L100 150 Z" fill="#f5576c"/>
</svg>